<svg xmlns="http://www.w3.org/2000/svg" width="96.155" height="96.171" viewBox="0 0 96.155 96.171"><path d="M82.074,14.084a48.091,48.091,0,0,0-58.625-7.3A1.409,1.409,0,0,0,24.895,9.2a45.325,45.325,0,1,1-5.253,3.666,1.408,1.408,0,1,0-1.771-2.19,48.079,48.079,0,1,0,64.2,3.409Zm0,0" transform="translate(0 0)" fill="#754FFE"/><path d="M147.952,158.1a1.409,1.409,0,0,0-1.409,1.409v3.563a8.148,8.148,0,1,0,16.3,0V148.1l1.365,1.365a8.149,8.149,0,1,0,11.523-11.525l-14.358-14.36a9.324,9.324,0,0,0-13.187,0l-14.539,14.542a8.139,8.139,0,0,0,0,11.5l.027.027a8.127,8.127,0,0,0,11.495,0l1.379-1.379v5.188a1.409,1.409,0,1,0,2.818,0v-8.589a1.408,1.408,0,0,0-2.4-1l-3.785,3.785a5.31,5.31,0,0,1-7.511,0l-.027-.027a5.319,5.319,0,0,1,0-7.512l14.54-14.542a6.506,6.506,0,0,1,9.2,0l14.358,14.361a5.331,5.331,0,1,1-7.538,7.54l-3.769-3.771a1.409,1.409,0,0,0-2.405,1v18.375a5.331,5.331,0,1,1-10.661,0V159.51a1.409,1.409,0,0,0-1.409-1.409Zm0,0" transform="translate(-106.61 -98.149)" fill="#273546"/></svg>